<svg xmlns="http://www.w3.org/2000/svg" viewBox="0 0 1200 1500" width="1200" height="1500" role="img">
  <defs>
    <linearGradient id="gzziw3n" x1="0" y1="0" x2="1" y2="1">
      <stop offset="0%" stop-color="#4A3B31"/>
      <stop offset="52%" stop-color="#2C221C"/>
      <stop offset="100%" stop-color="#171110"/>
    </linearGradient>
    <radialGradient id="vzziw3n" cx="50%" cy="42%" r="78%">
      <stop offset="55%" stop-color="#000000" stop-opacity="0"/>
      <stop offset="100%" stop-color="#000000" stop-opacity="0.34"/>
    </radialGradient>
    <filter id="softzziw3n" x="-30%" y="-30%" width="160%" height="160%">
      <feGaussianBlur stdDeviation="42"/>
    </filter>
    <filter id="blobzziw3n" x="-40%" y="-40%" width="180%" height="180%">
      <feGaussianBlur stdDeviation="106"/>
    </filter>
    <filter id="grainzziw3n" x="0" y="0" width="100%" height="100%">
      <feTurbulence type="fractalNoise" baseFrequency="0.85" numOctaves="3" stitchTiles="stitch"/>
      <feColorMatrix type="saturate" values="0"/>
      <feComponentTransfer><feFuncA type="linear" slope="0.16"/></feComponentTransfer>
    </filter>
  </defs>

  <rect width="1200" height="1500" fill="url(#gzziw3n)"/>
  <ellipse cx="336.00000000000006" cy="360" rx="408.00000000000006" ry="390" fill="#FFFFFF" fill-opacity="0.17" filter="url(#blobzziw3n)"/>
  <ellipse cx="936" cy="1110" rx="384" ry="450" fill="#000000" fill-opacity="0.16" filter="url(#blobzziw3n)"/>
  <path d="M -69 -40 C 219 450, -69 1050, 161.39999999999998 1540" stroke="#FFFFFF" stroke-opacity="0.050" stroke-width="18" fill="none" filter="url(#softzziw3n)"/><path d="M 81 -40 C 369 450, 81 1050, 311.4 1540" stroke="#FFFFFF" stroke-opacity="0.075" stroke-width="40" fill="none" filter="url(#softzziw3n)"/><path d="M 231 -40 C 519 450, 231 1050, 461.4 1540" stroke="#FFFFFF" stroke-opacity="0.100" stroke-width="62" fill="none" filter="url(#softzziw3n)"/><path d="M 381 -40 C 669 450, 381 1050, 611.4 1540" stroke="#FFFFFF" stroke-opacity="0.050" stroke-width="84" fill="none" filter="url(#softzziw3n)"/><path d="M 531 -40 C 819 450, 531 1050, 761.4 1540" stroke="#FFFFFF" stroke-opacity="0.075" stroke-width="18" fill="none" filter="url(#softzziw3n)"/><path d="M 681 -40 C 969 450, 681 1050, 911.4 1540" stroke="#FFFFFF" stroke-opacity="0.100" stroke-width="40" fill="none" filter="url(#softzziw3n)"/><path d="M 831 -40 C 1119 450, 831 1050, 1061.4 1540" stroke="#FFFFFF" stroke-opacity="0.050" stroke-width="62" fill="none" filter="url(#softzziw3n)"/>
  <rect width="1200" height="1500" fill="url(#vzziw3n)"/>
  <rect width="1200" height="1500" filter="url(#grainzziw3n)" opacity="0.5"/>
  <g font-family="Georgia, 'Times New Roman', serif" text-anchor="middle">
    <text x="600" y="746" font-size="66" fill="#FFFFFF" fill-opacity="0.82" letter-spacing="1">Istanbul, 1984</text>
    <text x="600" y="826" font-family="Helvetica, Arial, sans-serif" font-size="31" fill="#FFFFFF" fill-opacity="0.5" letter-spacing="7"></text>
  </g>
</svg>
