<svg xmlns="http://www.w3.org/2000/svg" viewBox="0 0 2000 1400" width="2000" height="1400" role="img">
  <defs>
    <linearGradient id="gb5zwzr" x1="0" y1="0" x2="1" y2="1">
      <stop offset="0%" stop-color="#4A3B31"/>
      <stop offset="52%" stop-color="#2C221C"/>
      <stop offset="100%" stop-color="#171110"/>
    </linearGradient>
    <radialGradient id="vb5zwzr" cx="50%" cy="42%" r="78%">
      <stop offset="55%" stop-color="#000000" stop-opacity="0"/>
      <stop offset="100%" stop-color="#000000" stop-opacity="0.34"/>
    </radialGradient>
    <filter id="softb5zwzr" x="-30%" y="-30%" width="160%" height="160%">
      <feGaussianBlur stdDeviation="54"/>
    </filter>
    <filter id="blobb5zwzr" x="-40%" y="-40%" width="180%" height="180%">
      <feGaussianBlur stdDeviation="134"/>
    </filter>
    <filter id="grainb5zwzr" x="0" y="0" width="100%" height="100%">
      <feTurbulence type="fractalNoise" baseFrequency="0.85" numOctaves="3" stitchTiles="stitch"/>
      <feColorMatrix type="saturate" values="0"/>
      <feComponentTransfer><feFuncA type="linear" slope="0.16"/></feComponentTransfer>
    </filter>
  </defs>

  <rect width="2000" height="1400" fill="url(#gb5zwzr)"/>
  <ellipse cx="560" cy="336" rx="680" ry="364" fill="#FFFFFF" fill-opacity="0.17" filter="url(#blobb5zwzr)"/>
  <ellipse cx="1560" cy="1036" rx="640" ry="420" fill="#000000" fill-opacity="0.16" filter="url(#blobb5zwzr)"/>
  <path d="M -115 -40 C 365 420, -115 979.9999999999999, 269 1440" stroke="#FFFFFF" stroke-opacity="0.050" stroke-width="18" fill="none" filter="url(#softb5zwzr)"/><path d="M 135 -40 C 615 420, 135 979.9999999999999, 519 1440" stroke="#FFFFFF" stroke-opacity="0.075" stroke-width="40" fill="none" filter="url(#softb5zwzr)"/><path d="M 385 -40 C 865 420, 385 979.9999999999999, 769 1440" stroke="#FFFFFF" stroke-opacity="0.100" stroke-width="62" fill="none" filter="url(#softb5zwzr)"/><path d="M 635 -40 C 1115 420, 635 979.9999999999999, 1019 1440" stroke="#FFFFFF" stroke-opacity="0.050" stroke-width="84" fill="none" filter="url(#softb5zwzr)"/><path d="M 885 -40 C 1365 420, 885 979.9999999999999, 1269 1440" stroke="#FFFFFF" stroke-opacity="0.075" stroke-width="18" fill="none" filter="url(#softb5zwzr)"/><path d="M 1135 -40 C 1615 420, 1135 979.9999999999999, 1519 1440" stroke="#FFFFFF" stroke-opacity="0.100" stroke-width="40" fill="none" filter="url(#softb5zwzr)"/><path d="M 1385 -40 C 1865 420, 1385 979.9999999999999, 1769 1440" stroke="#FFFFFF" stroke-opacity="0.050" stroke-width="62" fill="none" filter="url(#softb5zwzr)"/>
  <rect width="2000" height="1400" fill="url(#vb5zwzr)"/>
  <rect width="2000" height="1400" filter="url(#grainb5zwzr)" opacity="0.5"/>
  
</svg>
