<svg xmlns="http://www.w3.org/2000/svg" viewBox="0 0 1400 900" width="1400" height="900" role="img">
  <defs>
    <linearGradient id="gql04t5" x1="0" y1="0" x2="1" y2="1">
      <stop offset="0%" stop-color="#E0B48A"/>
      <stop offset="52%" stop-color="#C1793F"/>
      <stop offset="100%" stop-color="#6E3E22"/>
    </linearGradient>
    <radialGradient id="vql04t5" cx="50%" cy="42%" r="78%">
      <stop offset="55%" stop-color="#000000" stop-opacity="0"/>
      <stop offset="100%" stop-color="#000000" stop-opacity="0.34"/>
    </radialGradient>
    <filter id="softql04t5" x="-30%" y="-30%" width="160%" height="160%">
      <feGaussianBlur stdDeviation="37"/>
    </filter>
    <filter id="blobql04t5" x="-40%" y="-40%" width="180%" height="180%">
      <feGaussianBlur stdDeviation="92"/>
    </filter>
    <filter id="grainql04t5" x="0" y="0" width="100%" height="100%">
      <feTurbulence type="fractalNoise" baseFrequency="0.85" numOctaves="3" stitchTiles="stitch"/>
      <feColorMatrix type="saturate" values="0"/>
      <feComponentTransfer><feFuncA type="linear" slope="0.16"/></feComponentTransfer>
    </filter>
  </defs>

  <rect width="1400" height="900" fill="url(#gql04t5)"/>
  <ellipse cx="392.00000000000006" cy="216" rx="476.00000000000006" ry="234" fill="#FFFFFF" fill-opacity="0.17" filter="url(#blobql04t5)"/>
  <ellipse cx="1092" cy="666" rx="448" ry="270" fill="#000000" fill-opacity="0.16" filter="url(#blobql04t5)"/>
  <path d="M -80.5 -40 C 255.5 270, -80.5 630, 188.3 940" stroke="#FFFFFF" stroke-opacity="0.050" stroke-width="18" fill="none" filter="url(#softql04t5)"/><path d="M 94.5 -40 C 430.5 270, 94.5 630, 363.3 940" stroke="#FFFFFF" stroke-opacity="0.075" stroke-width="40" fill="none" filter="url(#softql04t5)"/><path d="M 269.5 -40 C 605.5 270, 269.5 630, 538.3 940" stroke="#FFFFFF" stroke-opacity="0.100" stroke-width="62" fill="none" filter="url(#softql04t5)"/><path d="M 444.5 -40 C 780.5 270, 444.5 630, 713.3 940" stroke="#FFFFFF" stroke-opacity="0.050" stroke-width="84" fill="none" filter="url(#softql04t5)"/><path d="M 619.5 -40 C 955.5 270, 619.5 630, 888.3 940" stroke="#FFFFFF" stroke-opacity="0.075" stroke-width="18" fill="none" filter="url(#softql04t5)"/><path d="M 794.5 -40 C 1130.5 270, 794.5 630, 1063.3 940" stroke="#FFFFFF" stroke-opacity="0.100" stroke-width="40" fill="none" filter="url(#softql04t5)"/><path d="M 969.5 -40 C 1305.5 270, 969.5 630, 1238.3 940" stroke="#FFFFFF" stroke-opacity="0.050" stroke-width="62" fill="none" filter="url(#softql04t5)"/>
  <rect width="1400" height="900" fill="url(#vql04t5)"/>
  <rect width="1400" height="900" filter="url(#grainql04t5)" opacity="0.5"/>
  <g font-family="Georgia, 'Times New Roman', serif" text-anchor="middle">
    <text x="700" y="446" font-size="50" fill="#FFFFFF" fill-opacity="0.82" letter-spacing="1">Balayage vs highlights</text>
    <text x="700" y="510" font-family="Helvetica, Arial, sans-serif" font-size="23" fill="#FFFFFF" fill-opacity="0.5" letter-spacing="5"></text>
  </g>
</svg>
