<svg xmlns="http://www.w3.org/2000/svg" viewBox="0 0 1200 900" width="1200" height="900" role="img">
  <defs>
    <linearGradient id="gbn95i6" x1="0" y1="0" x2="1" y2="1">
      <stop offset="0%" stop-color="#F3EADC"/>
      <stop offset="52%" stop-color="#DFCDB6"/>
      <stop offset="100%" stop-color="#BFA88E"/>
    </linearGradient>
    <radialGradient id="vbn95i6" cx="50%" cy="42%" r="78%">
      <stop offset="55%" stop-color="#000000" stop-opacity="0"/>
      <stop offset="100%" stop-color="#000000" stop-opacity="0.34"/>
    </radialGradient>
    <filter id="softbn95i6" x="-30%" y="-30%" width="160%" height="160%">
      <feGaussianBlur stdDeviation="33"/>
    </filter>
    <filter id="blobbn95i6" x="-40%" y="-40%" width="180%" height="180%">
      <feGaussianBlur stdDeviation="83"/>
    </filter>
    <filter id="grainbn95i6" x="0" y="0" width="100%" height="100%">
      <feTurbulence type="fractalNoise" baseFrequency="0.85" numOctaves="3" stitchTiles="stitch"/>
      <feColorMatrix type="saturate" values="0"/>
      <feComponentTransfer><feFuncA type="linear" slope="0.16"/></feComponentTransfer>
    </filter>
  </defs>

  <rect width="1200" height="900" fill="url(#gbn95i6)"/>
  <ellipse cx="336.00000000000006" cy="216" rx="408.00000000000006" ry="234" fill="#FFFFFF" fill-opacity="0.17" filter="url(#blobbn95i6)"/>
  <ellipse cx="936" cy="666" rx="384" ry="270" fill="#000000" fill-opacity="0.16" filter="url(#blobbn95i6)"/>
  <path d="M -69 -40 C 219 270, -69 630, 161.39999999999998 940" stroke="#FFFFFF" stroke-opacity="0.050" stroke-width="18" fill="none" filter="url(#softbn95i6)"/><path d="M 81 -40 C 369 270, 81 630, 311.4 940" stroke="#FFFFFF" stroke-opacity="0.075" stroke-width="40" fill="none" filter="url(#softbn95i6)"/><path d="M 231 -40 C 519 270, 231 630, 461.4 940" stroke="#FFFFFF" stroke-opacity="0.100" stroke-width="62" fill="none" filter="url(#softbn95i6)"/><path d="M 381 -40 C 669 270, 381 630, 611.4 940" stroke="#FFFFFF" stroke-opacity="0.050" stroke-width="84" fill="none" filter="url(#softbn95i6)"/><path d="M 531 -40 C 819 270, 531 630, 761.4 940" stroke="#FFFFFF" stroke-opacity="0.075" stroke-width="18" fill="none" filter="url(#softbn95i6)"/><path d="M 681 -40 C 969 270, 681 630, 911.4 940" stroke="#FFFFFF" stroke-opacity="0.100" stroke-width="40" fill="none" filter="url(#softbn95i6)"/><path d="M 831 -40 C 1119 270, 831 630, 1061.4 940" stroke="#FFFFFF" stroke-opacity="0.050" stroke-width="62" fill="none" filter="url(#softbn95i6)"/>
  <rect width="1200" height="900" fill="url(#vbn95i6)"/>
  <rect width="1200" height="900" filter="url(#grainbn95i6)" opacity="0.5"/>
  <g font-family="Georgia, 'Times New Roman', serif" text-anchor="middle">
    <text x="600" y="446" font-size="50" fill="#FFFFFF" fill-opacity="0.82" letter-spacing="1">Styling floor</text>
    <text x="600" y="510" font-family="Helvetica, Arial, sans-serif" font-size="23" fill="#FFFFFF" fill-opacity="0.5" letter-spacing="5"></text>
  </g>
</svg>
